<?xml version="1.0" encoding="UTF-8" standalone="no"?>
<!-- Created with Inkscape (http://www.inkscape.org/) -->

<svg
   width="5.953125mm"
   height="5.953125mm"
   viewBox="0 0 5.953125 5.953125"
   version="1.1"
   id="svg1"
   xml:space="preserve"
   inkscape:version="1.3 (0e150ed, 2023-07-21)"
   sodipodi:docname="favicon.svg"
   xmlns:inkscape="http://www.inkscape.org/namespaces/inkscape"
   xmlns:sodipodi="http://sodipodi.sourceforge.net/DTD/sodipodi-0.dtd"
   xmlns="http://www.w3.org/2000/svg"
   xmlns:svg="http://www.w3.org/2000/svg"><sodipodi:namedview
     id="namedview1"
     pagecolor="#ffffff"
     bordercolor="#000000"
     borderopacity="0.25"
     inkscape:showpageshadow="2"
     inkscape:pageopacity="0.0"
     inkscape:pagecheckerboard="0"
     inkscape:deskcolor="#d1d1d1"
     inkscape:document-units="mm"
     inkscape:zoom="11.530495"
     inkscape:cx="14.613423"
     inkscape:cy="6.5044909"
     inkscape:window-width="1472"
     inkscape:window-height="829"
     inkscape:window-x="0"
     inkscape:window-y="38"
     inkscape:window-maximized="0"
     inkscape:current-layer="layer1" /><defs
     id="defs1" /><g
     inkscape:label="Layer 1"
     inkscape:groupmode="layer"
     id="layer1"
     transform="translate(-102.10607,-144.99427)"><rect
       style="fill:#4e73c4;stroke:#000000;stroke-width:0.1;stroke-linecap:round;stroke-dasharray:none;stroke-opacity:1;fill-opacity:1"
       id="rect1"
       width="5.4382958"
       height="5.4382958"
       x="102.38142"
       y="145.31552"
       ry="1.5603551" /><path
       style="font-weight:900;font-size:4.23333px;font-family:Inter;-inkscape-font-specification:'Inter Heavy';letter-spacing:0.264583px;fill:#d4def1;stroke:#000000;stroke-width:0.1;stroke-linecap:round"
       d="m 105.01215,149.54687 v -3.07991 h 1.33532 q 0.5271,0 0.79995,0.20877 0.27492,0.20878 0.27492,0.56018 0,0.25631 -0.1633,0.44028 -0.1633,0.1819 -0.43201,0.23358 v 0.0331 q 0.19843,0.006 0.35966,0.0992 0.1633,0.091 0.25838,0.25425 0.0972,0.16123 0.0972,0.37827 0,0.25218 -0.13023,0.45062 -0.13022,0.19637 -0.37207,0.31005 -0.24184,0.11162 -0.57671,0.11162 z m 0.83509,-0.66559 h 0.39274 q 0.42168,0 0.42168,-0.31419 0,-0.1633 -0.10955,-0.25011 -0.10956,-0.0889 -0.29973,-0.0889 h -0.40514 z m 0,-1.16995 h 0.34313 q 0.16537,0 0.26872,-0.0744 0.10335,-0.0765 0.10335,-0.21911 0,-0.14056 -0.10335,-0.21704 -0.10129,-0.0765 -0.25632,-0.0765 h -0.35553 z"
       id="text1-0"
       aria-label="B" /><path
       style="font-weight:900;font-size:4.23333px;font-family:Inter;-inkscape-font-specification:'Inter Heavy';letter-spacing:0.264583px;fill:#ffffff;stroke:#000000;stroke-width:0.1;stroke-linecap:round"
       d="m 102.59123,149.53766 0.99839,-3.07991 h 1.14101 l 1.0356,3.07991 h -0.94671 l -0.17777,-0.59118 h -0.94671 l -0.1695,0.59118 z m 1.28158,-1.21543 h 0.58291 q -0.0847,-0.28112 -0.16123,-0.57878 -0.0744,-0.29972 -0.14263,-0.60151 -0.0641,0.30179 -0.13229,0.60151 -0.0662,0.29766 -0.14676,0.57878 z"
       id="text1"
       aria-label="A" /></g></svg>
